<svg width="58" height="28" viewBox="0 0 58 28" fill="none" xmlns="http://www.w3.org/2000/svg">
<path d="M52.2 -1H5.8C2.61 -1 0 0.305 0 1.9V28L11.6 22.2H52.2C55.39 22.2 58 20.895 58 19.3V1.9C58 0.305 55.39 -1 52.2 -1Z" fill="#676767"/>
<path d="M16.088 5.224C17.08 5.224 17.9173 5.38933 18.6 5.72C19.2827 6.04 19.8 6.49867 20.152 7.096C20.5147 7.68267 20.696 8.38133 20.696 9.192C20.696 9.672 20.6213 10.152 20.472 10.632C20.3333 11.112 20.0987 11.5493 19.768 11.944C19.448 12.3387 19.0213 12.6587 18.488 12.904C17.9547 13.1387 17.2933 13.256 16.504 13.256H14.84V17H12.52V5.224H16.088ZM16.488 11.016C16.9573 11.016 17.32 10.92 17.576 10.728C17.8427 10.5253 18.0293 10.2907 18.136 10.024C18.2427 9.74667 18.296 9.496 18.296 9.272C18.296 9.144 18.2747 8.984 18.232 8.792C18.2 8.58933 18.1253 8.38667 18.008 8.184C17.8907 7.98133 17.7093 7.81067 17.464 7.672C17.2293 7.53333 16.9093 7.464 16.504 7.464H14.84V11.016H16.488ZM18.664 12.456L21.576 17H18.872L15.896 12.52L18.664 12.456ZM23.4888 17V4.744H23.5048L30.0487 14.024L29.0568 13.8L35.5848 4.744H35.6168V17H33.2968V9.976L33.4408 11.176L29.4568 16.84H29.4248L25.3288 11.176L25.7288 10.072V17H23.4888ZM42.2286 5.224C43.69 5.224 44.81 5.58667 45.5886 6.312C46.3673 7.02667 46.7566 7.98667 46.7566 9.192C46.7566 9.672 46.682 10.1573 46.5326 10.648C46.394 11.128 46.1646 11.5653 45.8446 11.96C45.5353 12.3547 45.114 12.6747 44.5806 12.92C44.058 13.1547 43.4126 13.272 42.6446 13.272H40.9806V17H38.6606V5.224H42.2286ZM42.6286 11.016C42.9806 11.016 43.274 10.9573 43.5086 10.84C43.7433 10.712 43.9246 10.5573 44.0526 10.376C44.1913 10.184 44.2873 9.98667 44.3406 9.784C44.4046 9.58133 44.4366 9.40533 44.4366 9.256C44.4366 9.13867 44.4153 8.984 44.3726 8.792C44.3406 8.58933 44.266 8.38667 44.1486 8.184C44.0313 7.98133 43.85 7.81067 43.6046 7.672C43.37 7.53333 43.05 7.464 42.6446 7.464H40.9806V11.016H42.6286Z" fill="white"/>
</svg>
